# xmcd
#
# Track frame offsets:
#	150
#	13163
#	24413
#	36862
#	48034
#	60368
#	74245
#	85722
#	100046
#	114707
#
# Disc length: 1715 seconds
# Revision: 0
# Processed by: cddbd v1.5.1PL0 Copyright (c) Steve Scherf et al.
# Submitted via: cdrLabel 7.1
#
DISCID=7a06b10a
DTITLE=Lacy J. Dalton -  Lacy J. Dalton
DYEAR=1900
DGENRE=
TTITLE0=Crazy Blue Eyes
TTITLE1=High Like an Angel
TTITLE2=Honky Tonk Man
TTITLE3=Carolina Come-On
TTITLE4=Beer Drinkin' Song
TTITLE5=Tennessee Waltz
TTITLE6=Late Night Kind of Lonesome
TTITLE7=Losing Kind of Love
TTITLE8=Are There Any Cowboys Left (In the Good Ol' U.S.A.)
TTITLE9=Turn My Head Around
EXTD=
EXTT0=
EXTT1=
EXTT2=
EXTT3=
EXTT4=
EXTT5=
EXTT6=
EXTT7=
EXTT8=
EXTT9=
PLAYORDER=
